<svg xmlns="http://www.w3.org/2000/svg" xmlns:xlink="http://www.w3.org/1999/xlink" width="1080" zoomAndPan="magnify" viewBox="0 0 810 809.999993" height="1080" preserveAspectRatio="xMidYMid meet" version="1.0"><defs><clipPath id="9cd46f9769"><path d="M 227.34375 213.457031 L 582.84375 213.457031 L 582.84375 596.707031 L 227.34375 596.707031 Z M 227.34375 213.457031 " clip-rule="nonzero"/></clipPath><clipPath id="c5b50e72d9"><path d="M 227.34375 213.457031 L 582.84375 213.457031 L 582.84375 596.707031 L 227.34375 596.707031 Z M 227.34375 213.457031 " clip-rule="nonzero"/></clipPath></defs><g clip-path="url(#9cd46f9769)"><path fill="#fff200" d="M 543.796875 412.757812 L 582.804688 396.570312 L 575.898438 381.945312 L 527.628906 407.640625 L 513.851562 403.289062 L 517.296875 388.9375 L 575.203125 347.457031 L 565.246094 334.707031 L 521.359375 372.003906 L 523.890625 361.472656 L 526.34375 351.105469 L 564.664062 314.265625 L 550.675781 305.636719 C 554.316406 301.828125 557.945312 298.011719 561.566406 294.1875 L 546.933594 284.234375 L 532.242188 274.382812 C 522.457031 267.792969 512.574219 261.367188 502.746094 254.851562 C 492.914062 248.34375 483 241.972656 473.128906 235.527344 L 458.292969 225.902344 L 443.414062 216.355469 L 438.886719 213.457031 L 437.214844 218.710938 L 428.984375 244.527344 L 420.90625 270.382812 L 412.855469 296.25 C 410.148438 304.863281 407.527344 313.5 404.910156 322.144531 L 404.050781 324.96875 L 389.421875 308.75 L 399.34375 224.167969 L 383.207031 223.027344 L 381.347656 299.800781 L 381.042969 299.460938 L 378.121094 306.546875 L 366.746094 334.117188 L 366.539062 259.871094 L 350.382812 260.738281 L 357.589844 329.164062 L 349.78125 348.351562 L 313.019531 342.070312 L 261.902344 333.480469 L 251.769531 331.78125 L 256.085938 341.128906 L 265.234375 360.929688 L 237.375 356.308594 L 277.128906 441.988281 L 247.929688 461.703125 L 238.289062 468.214844 L 246.699219 470.722656 L 227.363281 483.738281 L 282.621094 500.304688 L 262.867188 588.097656 L 370 551.464844 L 411.304688 596.695312 L 421.851562 570.769531 L 432.105469 581.816406 L 436.277344 586.3125 L 438.5 580.671875 L 449.632812 552.410156 L 532.875 566.214844 L 523.335938 545.652344 L 556.203125 550.617188 L 559.789062 551.160156 L 558.230469 547.949219 L 536.117188 502.324219 L 514.414062 457.949219 L 542.886719 438.789062 L 542.15625 438.570312 L 567.226562 422.355469 L 569.429688 420.929688 L 566.886719 420.121094 L 543.796875 412.757812 " fill-opacity="1" fill-rule="nonzero"/></g><path fill="#f9a72b" d="M 462.507812 369.195312 C 460.515625 368.539062 458.289062 369.234375 457.171875 370.859375 C 456.027344 372.523438 456.296875 374.746094 457.976562 375.957031 C 458.171875 376.101562 458.398438 376.230469 458.628906 376.347656 L 464.582031 370.625 C 464.09375 369.980469 463.40625 369.492188 462.507812 369.195312 " fill-opacity="1" fill-rule="nonzero"/><path fill="#f9a72b" d="M 487.144531 341.976562 C 485.019531 341.183594 482.597656 341.964844 481.515625 343.789062 C 480.410156 345.652344 481.070312 347.878906 483.066406 349.082031 C 483.300781 349.21875 483.503906 349.402344 483.722656 349.5625 C 483.476562 349.496094 483.226562 349.425781 482.980469 349.355469 C 480.773438 348.722656 478.527344 349.480469 477.414062 351.226562 C 476.265625 353.03125 476.703125 355.152344 478.511719 356.570312 C 478.625 356.660156 478.742188 356.757812 478.878906 356.878906 L 485.136719 350.863281 C 484.777344 350.457031 484.316406 350.035156 483.6875 349.53125 C 483.9375 349.550781 484.191406 349.542969 484.441406 349.59375 C 485.152344 349.726562 485.847656 349.699219 486.496094 349.558594 L 489.785156 346.394531 C 490.160156 344.554688 489.097656 342.707031 487.144531 341.976562 " fill-opacity="1" fill-rule="nonzero"/><path fill="#f9a72b" d="M 466.023438 361.1875 C 463.953125 360.753906 461.835938 361.667969 460.914062 363.390625 C 460.007812 365.074219 460.492188 367.09375 462.089844 368.304688 C 463.355469 369.261719 464.765625 369.453125 466.378906 368.894531 L 469.472656 365.921875 C 469.398438 363.222656 468.261719 361.652344 466.023438 361.1875 " fill-opacity="1" fill-rule="nonzero"/><path fill="#f9a72b" d="M 473.308594 358.882812 C 473.71875 356.292969 472.738281 354.496094 470.589844 353.753906 C 468.617188 353.066406 466.359375 353.730469 465.214844 355.332031 C 464.09375 356.90625 464.304688 358.988281 465.742188 360.332031 C 466.699219 361.21875 467.90625 361.777344 469.242188 361.519531 C 470.46875 361.28125 471.617188 360.691406 472.75 360.269531 C 472.585938 361.050781 472.648438 361.84375 472.9375 362.589844 L 478.738281 357.015625 C 476.488281 356.597656 474.726562 357.195312 473.308594 358.882812 " fill-opacity="1" fill-rule="nonzero"/><path fill="#f9a72b" d="M 493.730469 341.480469 C 493.734375 341.816406 493.796875 342.132812 493.890625 342.445312 L 498.953125 337.578125 C 498.675781 337.527344 498.390625 337.503906 498.097656 337.503906 C 495.710938 337.519531 493.714844 339.332031 493.730469 341.480469 " fill-opacity="1" fill-rule="nonzero"/><path fill="#f9a72b" d="M 473.027344 353.65625 C 475.414062 353.628906 477.402344 351.800781 477.367188 349.660156 C 477.332031 347.5 475.308594 345.707031 472.9375 345.742188 C 470.550781 345.769531 468.5625 347.597656 468.597656 349.738281 C 468.628906 351.894531 470.652344 353.6875 473.027344 353.65625 " fill-opacity="1" fill-rule="nonzero"/><path fill="#f9a72b" d="M 452.597656 380.578125 C 452.589844 381.042969 452.695312 381.480469 452.851562 381.898438 L 458.109375 376.84375 C 457.769531 376.761719 457.417969 376.699219 457.050781 376.6875 C 454.679688 376.632812 452.644531 378.410156 452.597656 380.578125 " fill-opacity="1" fill-rule="nonzero"/><path fill="#f9a72b" d="M 489.5 334.054688 C 487.1875 334.019531 485.222656 335.777344 485.242188 337.871094 C 485.253906 339.925781 487.160156 341.640625 489.4375 341.640625 C 491.714844 341.644531 493.621094 339.933594 493.640625 337.875 C 493.660156 335.820312 491.78125 334.089844 489.5 334.054688 " fill-opacity="1" fill-rule="nonzero"/><path fill="#f9a72b" d="M 481.1875 342.003906 C 481.140625 339.945312 479.21875 338.25 476.945312 338.269531 C 474.667969 338.292969 472.777344 340.023438 472.78125 342.078125 C 472.789062 344.132812 474.695312 345.851562 476.96875 345.859375 C 479.285156 345.867188 481.230469 344.09375 481.1875 342.003906 " fill-opacity="1" fill-rule="nonzero"/><path fill="#f9a72b" d="M 460.488281 361.472656 C 460.433594 359.421875 458.496094 357.734375 456.242188 357.765625 C 453.980469 357.800781 452.09375 359.539062 452.109375 361.574219 C 452.128906 363.617188 454.039062 365.335938 456.296875 365.335938 C 458.601562 365.335938 460.550781 363.542969 460.488281 361.472656 " fill-opacity="1" fill-rule="nonzero"/><path fill="#f9a72b" d="M 464.464844 353.871094 C 464.429688 351.851562 462.566406 350.179688 460.335938 350.15625 C 458.074219 350.136719 456.144531 351.859375 456.140625 353.910156 C 456.136719 355.957031 458.0625 357.691406 460.328125 357.675781 C 462.597656 357.660156 464.5 355.910156 464.464844 353.871094 " fill-opacity="1" fill-rule="nonzero"/><path fill="#f9a72b" d="M 452.523438 373.144531 C 454.792969 373.140625 456.707031 371.394531 456.683594 369.351562 C 456.65625 367.335938 454.800781 365.65625 452.570312 365.625 C 450.308594 365.589844 448.375 367.3125 448.355469 369.363281 C 448.339844 371.40625 450.257812 373.144531 452.523438 373.144531 " fill-opacity="1" fill-rule="nonzero"/><path fill="#f9a72b" d="M 468.328125 346.097656 C 468.335938 344.070312 466.582031 342.464844 464.351562 342.449219 C 462.105469 342.433594 460.308594 344.007812 460.285156 346.019531 C 460.257812 348.089844 462.035156 349.722656 464.320312 349.714844 C 466.558594 349.710938 468.324219 348.117188 468.328125 346.097656 " fill-opacity="1" fill-rule="nonzero"/><path fill="#f9a72b" d="M 497.875 333.742188 C 497.847656 335.070312 498.570312 336.21875 499.6875 336.875 L 505.117188 331.65625 C 504.398438 330.785156 503.273438 330.210938 501.96875 330.195312 C 499.71875 330.167969 497.914062 331.734375 497.875 333.742188 " fill-opacity="1" fill-rule="nonzero"/><path fill="#f9a72b" d="M 448.585938 373.382812 C 446.335938 373.359375 444.53125 374.921875 444.488281 376.925781 C 444.449219 379.003906 446.21875 380.644531 448.5 380.648438 C 450.742188 380.652344 452.519531 379.074219 452.535156 377.054688 C 452.554688 375.027344 450.8125 373.40625 448.585938 373.382812 " fill-opacity="1" fill-rule="nonzero"/><path fill="#f9a72b" d="M 484.929688 334.199219 C 484.902344 332.292969 483.148438 330.699219 481.035156 330.671875 C 478.898438 330.640625 477.0625 332.273438 477.046875 334.214844 C 477.035156 336.152344 478.855469 337.800781 481 337.792969 C 483.148438 337.785156 484.960938 336.128906 484.929688 334.199219 " fill-opacity="1" fill-rule="nonzero"/><path fill="#f9a72b" d="M 493.40625 333.695312 C 495.582031 333.710938 497.289062 332.183594 497.296875 330.222656 C 497.304688 328.257812 495.601562 326.726562 493.425781 326.734375 C 491.296875 326.746094 489.625 328.238281 489.59375 330.15625 C 489.5625 332.121094 491.238281 333.675781 493.40625 333.695312 " fill-opacity="1" fill-rule="nonzero"/><path fill="#f9a72b" d="M 444.554688 381.386719 C 442.414062 381.367188 440.722656 382.839844 440.675781 384.757812 C 440.628906 386.738281 442.289062 388.292969 444.464844 388.3125 C 445.511719 388.324219 446.449219 387.96875 447.140625 387.386719 L 447.324219 387.214844 C 447.941406 386.617188 448.328125 385.832031 448.347656 384.941406 C 448.390625 382.960938 446.734375 381.40625 444.554688 381.386719 " fill-opacity="1" fill-rule="nonzero"/><path fill="#f9a72b" d="M 472.144531 338.476562 C 472.15625 336.539062 470.519531 335.019531 468.390625 334.984375 C 466.203125 334.953125 464.488281 336.457031 464.476562 338.425781 C 464.464844 340.359375 466.101562 341.878906 468.230469 341.914062 C 470.421875 341.945312 472.132812 340.441406 472.144531 338.476562 " fill-opacity="1" fill-rule="nonzero"/><path fill="#f9a72b" d="M 451.628906 357.949219 C 451.636719 356.082031 449.980469 354.554688 447.921875 354.519531 C 445.804688 354.488281 444.074219 356.011719 444.066406 357.917969 C 444.058594 359.78125 445.710938 361.3125 447.773438 361.347656 C 449.890625 361.378906 451.617188 359.855469 451.628906 357.949219 " fill-opacity="1" fill-rule="nonzero"/><path fill="#f9a72b" d="M 448.085938 350.242188 C 448.046875 352.078125 449.71875 353.648438 451.757812 353.699219 C 453.832031 353.753906 455.609375 352.1875 455.613281 350.308594 C 455.621094 348.46875 453.929688 346.921875 451.886719 346.902344 C 449.855469 346.878906 448.125 348.398438 448.085938 350.242188 " fill-opacity="1" fill-rule="nonzero"/><path fill="#f9a72b" d="M 447.597656 365.796875 C 447.617188 363.960938 445.910156 362.398438 443.875 362.378906 C 441.847656 362.363281 440.113281 363.898438 440.089844 365.738281 C 440.070312 367.570312 441.777344 369.136719 443.8125 369.160156 C 445.84375 369.175781 447.574219 367.636719 447.597656 365.796875 " fill-opacity="1" fill-rule="nonzero"/><path fill="#f9a72b" d="M 443.453125 373.484375 C 443.492188 371.617188 441.925781 370.152344 439.875 370.136719 C 437.859375 370.125 436.269531 371.511719 436.230469 373.320312 C 436.1875 375.183594 437.753906 376.648438 439.804688 376.664062 C 441.820312 376.675781 443.410156 375.289062 443.453125 373.484375 " fill-opacity="1" fill-rule="nonzero"/><path fill="#f9a72b" d="M 452.226562 342.398438 C 452.191406 344.257812 453.757812 345.726562 455.808594 345.746094 C 457.863281 345.765625 459.476562 344.335938 459.484375 342.484375 C 459.492188 340.628906 457.898438 339.183594 455.847656 339.1875 C 453.839844 339.195312 452.261719 340.589844 452.226562 342.398438 " fill-opacity="1" fill-rule="nonzero"/><path fill="#f9a72b" d="M 505.96875 322.71875 C 503.957031 322.691406 502.347656 324.054688 502.273438 325.859375 C 502.199219 327.722656 503.734375 329.21875 505.777344 329.269531 C 507.835938 329.328125 509.480469 327.929688 509.53125 326.082031 C 509.578125 324.222656 508.015625 322.75 505.96875 322.71875 " fill-opacity="1" fill-rule="nonzero"/><path fill="#f9a72b" d="M 488.589844 326.636719 C 488.609375 324.8125 487.066406 323.378906 485.0625 323.351562 C 483.042969 323.324219 481.4375 324.707031 481.398438 326.511719 C 481.355469 328.382812 482.921875 329.839844 484.976562 329.847656 C 486.996094 329.851562 488.574219 328.449219 488.589844 326.636719 " fill-opacity="1" fill-rule="nonzero"/><path fill="#f9a72b" d="M 468.730469 330.609375 C 468.726562 332.425781 470.292969 333.851562 472.304688 333.851562 C 474.324219 333.855469 475.894531 332.441406 475.894531 330.625 C 475.902344 328.804688 474.335938 327.382812 472.320312 327.378906 C 470.304688 327.375 468.734375 328.789062 468.730469 330.609375 " fill-opacity="1" fill-rule="nonzero"/><path fill="#f9a72b" d="M 440.546875 389.253906 C 438.535156 389.242188 436.9375 390.660156 436.933594 392.46875 C 436.929688 393.734375 437.714844 394.8125 438.863281 395.347656 L 443.570312 390.824219 C 442.957031 389.890625 441.851562 389.265625 440.546875 389.253906 " fill-opacity="1" fill-rule="nonzero"/><path fill="#f9a72b" d="M 456.394531 334.8125 C 456.378906 336.519531 457.941406 337.949219 459.835938 337.964844 C 461.726562 337.976562 463.308594 336.566406 463.324219 334.855469 C 463.339844 333.148438 461.777344 331.71875 459.878906 331.703125 C 457.992188 331.691406 456.40625 333.101562 456.394531 334.8125 " fill-opacity="1" fill-rule="nonzero"/><path fill="#f9a72b" d="M 500.914062 322.355469 C 500.894531 320.640625 499.308594 319.234375 497.421875 319.25 C 495.523438 319.265625 493.964844 320.699219 493.984375 322.40625 C 494 324.117188 495.585938 325.527344 497.476562 325.511719 C 499.375 325.492188 500.9375 324.0625 500.914062 322.355469 " fill-opacity="1" fill-rule="nonzero"/><path fill="#f9a72b" d="M 435.875 384.335938 C 437.792969 384.316406 439.308594 382.90625 439.273438 381.175781 C 439.234375 379.480469 437.730469 378.140625 435.855469 378.132812 C 433.9375 378.125 432.394531 379.507812 432.402344 381.242188 C 432.40625 382.976562 433.957031 384.355469 435.875 384.335938 " fill-opacity="1" fill-rule="nonzero"/><path fill="#f9a72b" d="M 436.074219 354.300781 C 436.0625 355.929688 437.566406 357.304688 439.375 357.320312 C 441.183594 357.328125 442.707031 355.972656 442.71875 354.335938 C 442.730469 352.703125 441.222656 351.328125 439.414062 351.316406 C 437.609375 351.308594 436.082031 352.664062 436.074219 354.300781 " fill-opacity="1" fill-rule="nonzero"/><path fill="#f9a72b" d="M 515.296875 321.867188 L 518.246094 319.035156 C 516.667969 319.1875 515.363281 320.410156 515.296875 321.867188 " fill-opacity="1" fill-rule="nonzero"/><path fill="#f9a72b" d="M 479.613281 323.03125 C 479.648438 321.453125 478.195312 320.078125 476.429688 320.007812 C 474.644531 319.941406 473.0625 321.304688 473.023438 322.9375 C 472.988281 324.511719 474.441406 325.890625 476.207031 325.957031 C 477.988281 326.023438 479.574219 324.660156 479.613281 323.03125 " fill-opacity="1" fill-rule="nonzero"/><path fill="#f9a72b" d="M 439.898438 346.671875 C 439.886719 348.257812 441.367188 349.617188 443.128906 349.644531 C 444.882812 349.671875 446.402344 348.351562 446.453125 346.75 C 446.507812 345.136719 444.964844 343.71875 443.164062 343.726562 C 441.40625 343.734375 439.910156 345.078125 439.898438 346.671875 " fill-opacity="1" fill-rule="nonzero"/><path fill="#f9a72b" d="M 432.113281 362.164062 C 432.121094 363.753906 433.617188 365.101562 435.378906 365.109375 C 437.128906 365.121094 438.640625 363.78125 438.667969 362.1875 C 438.699219 360.609375 437.226562 359.234375 435.460938 359.191406 C 433.671875 359.148438 432.101562 360.539062 432.113281 362.164062 " fill-opacity="1" fill-rule="nonzero"/><path fill="#f9a72b" d="M 433.226562 400.121094 C 433.226562 400.316406 433.25 400.515625 433.292969 400.703125 L 436.9375 397.199219 C 436.820312 397.183594 436.703125 397.160156 436.582031 397.15625 C 434.792969 397.105469 433.222656 398.496094 433.226562 400.121094 " fill-opacity="1" fill-rule="nonzero"/><path fill="#f9a72b" d="M 491.945312 318.75 C 491.941406 317.144531 490.570312 315.90625 488.785156 315.898438 C 486.957031 315.894531 485.566406 317.171875 485.601562 318.828125 C 485.632812 320.433594 487.027344 321.648438 488.816406 321.628906 C 490.597656 321.613281 491.953125 320.367188 491.945312 318.75 " fill-opacity="1" fill-rule="nonzero"/><path fill="#f9a72b" d="M 467.035156 327.105469 C 467.089844 325.449219 465.71875 324.152344 463.898438 324.132812 C 462.109375 324.121094 460.71875 325.339844 460.6875 326.945312 C 460.660156 328.5625 462 329.832031 463.769531 329.867188 C 465.566406 329.902344 466.980469 328.707031 467.035156 327.105469 " fill-opacity="1" fill-rule="nonzero"/><path fill="#f9a72b" d="M 434.988281 388.847656 C 434.976562 387.242188 433.601562 386.011719 431.8125 386.015625 C 430.03125 386.027344 428.671875 387.269531 428.679688 388.882812 C 428.683594 390.492188 430.066406 391.726562 431.851562 391.71875 C 433.632812 391.707031 434.996094 390.460938 434.988281 388.847656 " fill-opacity="1" fill-rule="nonzero"/><path fill="#f9a72b" d="M 509.941406 315.527344 C 508.15625 315.515625 506.765625 316.75 506.765625 318.359375 C 506.757812 319.925781 508.089844 321.164062 509.8125 321.199219 C 511.601562 321.234375 513.019531 320.015625 513.046875 318.421875 C 513.070312 316.804688 511.710938 315.542969 509.941406 315.527344 " fill-opacity="1" fill-rule="nonzero"/><path fill="#f9a72b" d="M 434.527344 369.800781 C 434.535156 368.195312 433.15625 366.945312 431.375 366.949219 C 429.644531 366.953125 428.277344 368.164062 428.25 369.71875 C 428.214844 371.332031 429.570312 372.601562 431.34375 372.621094 C 433.125 372.636719 434.519531 371.40625 434.527344 369.800781 " fill-opacity="1" fill-rule="nonzero"/><path fill="#f9a72b" d="M 447.21875 336.027344 C 445.445312 336.011719 444.046875 337.269531 444.054688 338.867188 C 444.058594 340.421875 445.417969 341.660156 447.140625 341.675781 C 448.910156 341.691406 450.316406 340.433594 450.308594 338.835938 C 450.300781 337.277344 448.9375 336.042969 447.21875 336.027344 " fill-opacity="1" fill-rule="nonzero"/><path fill="#f9a72b" d="M 501.433594 317.398438 C 503.109375 317.40625 504.394531 316.253906 504.390625 314.738281 C 504.386719 313.230469 503.09375 312.078125 501.417969 312.09375 C 499.746094 312.109375 498.488281 313.289062 498.515625 314.804688 C 498.542969 316.273438 499.804688 317.390625 501.433594 317.398438 " fill-opacity="1" fill-rule="nonzero"/><path fill="#f9a72b" d="M 451.113281 333.871094 C 452.789062 333.898438 454.101562 332.761719 454.121094 331.257812 C 454.140625 329.742188 452.871094 328.574219 451.203125 328.566406 C 449.523438 328.5625 448.238281 329.714844 448.25 331.230469 C 448.25 332.699219 449.492188 333.84375 451.113281 333.871094 " fill-opacity="1" fill-rule="nonzero"/><path fill="#f9a72b" d="M 430.320312 377.605469 C 430.316406 376.132812 429.074219 374.992188 427.457031 374.96875 C 425.773438 374.941406 424.46875 376.074219 424.449219 377.582031 C 424.425781 379.097656 425.695312 380.265625 427.371094 380.269531 C 429.042969 380.277344 430.328125 379.121094 430.320312 377.605469 " fill-opacity="1" fill-rule="nonzero"/><path fill="#f9a72b" d="M 467.878906 321.949219 C 469.402344 321.941406 470.714844 320.757812 470.726562 319.382812 C 470.734375 318.011719 469.433594 316.8125 467.910156 316.785156 C 466.394531 316.761719 465.054688 317.921875 465.007812 319.300781 C 464.960938 320.710938 466.3125 321.957031 467.878906 321.949219 " fill-opacity="1" fill-rule="nonzero"/><path fill="#f9a72b" d="M 480.308594 317.933594 C 481.828125 317.941406 483.15625 316.761719 483.179688 315.386719 C 483.203125 314.015625 481.921875 312.808594 480.390625 312.769531 C 478.875 312.726562 477.527344 313.878906 477.464844 315.261719 C 477.402344 316.664062 478.742188 317.921875 480.308594 317.933594 " fill-opacity="1" fill-rule="nonzero"/><path fill="#f9a72b" d="M 427.84375 394.160156 C 426.355469 394.152344 425.078125 395.261719 425.015625 396.613281 C 424.949219 397.984375 426.222656 399.199219 427.761719 399.242188 C 429.28125 399.285156 430.617188 398.125 430.644531 396.734375 C 430.671875 395.359375 429.375 394.167969 427.84375 394.160156 " fill-opacity="1" fill-rule="nonzero"/><path fill="#f9a72b" d="M 430.761719 348.273438 C 429.257812 348.261719 428.0625 349.289062 428.035156 350.640625 C 428 352 429.132812 353.089844 430.621094 353.128906 C 432.175781 353.171875 433.402344 352.109375 433.410156 350.714844 C 433.414062 349.355469 432.261719 348.296875 430.761719 348.273438 " fill-opacity="1" fill-rule="nonzero"/><path fill="#f9a72b" d="M 455.027344 326 C 456.519531 326.070312 457.78125 325.058594 457.859375 323.734375 C 457.941406 322.386719 456.820312 321.246094 455.351562 321.171875 C 453.855469 321.101562 452.59375 322.113281 452.515625 323.441406 C 452.433594 324.789062 453.554688 325.929688 455.027344 326 " fill-opacity="1" fill-rule="nonzero"/><path fill="#f9a72b" d="M 434.6875 345.476562 C 436.152344 345.492188 437.386719 344.398438 437.390625 343.078125 C 437.394531 341.753906 436.171875 340.652344 434.703125 340.664062 C 433.28125 340.671875 432.09375 341.730469 432.058594 343.015625 C 432.023438 344.335938 433.222656 345.457031 434.6875 345.476562 " fill-opacity="1" fill-rule="nonzero"/><path fill="#f9a72b" d="M 424.054688 358.476562 C 424.015625 359.800781 425.214844 360.921875 426.679688 360.941406 C 428.144531 360.960938 429.378906 359.871094 429.378906 358.546875 C 429.386719 357.222656 428.164062 356.121094 426.699219 356.132812 C 425.277344 356.140625 424.085938 357.195312 424.054688 358.476562 " fill-opacity="1" fill-rule="nonzero"/><path fill="#f9a72b" d="M 420.71875 385.144531 C 420.652344 386.464844 421.832031 387.613281 423.289062 387.660156 C 424.753906 387.703125 426.011719 386.628906 426.046875 385.308594 C 426.078125 384.027344 424.941406 382.914062 423.527344 382.847656 C 422.066406 382.773438 420.78125 383.824219 420.71875 385.144531 " fill-opacity="1" fill-rule="nonzero"/><path fill="#f9a72b" d="M 522.597656 311.738281 C 521.175781 311.734375 519.96875 312.777344 519.917969 314.058594 C 519.882812 314.949219 520.417969 315.742188 521.207031 316.1875 L 524.757812 312.773438 C 524.273438 312.15625 523.484375 311.742188 522.597656 311.738281 " fill-opacity="1" fill-rule="nonzero"/><path fill="#f9a72b" d="M 492.773438 313.539062 C 494.238281 313.542969 495.453125 312.433594 495.441406 311.113281 C 495.429688 309.828125 494.261719 308.753906 492.839844 308.726562 C 491.375 308.695312 490.132812 309.777344 490.113281 311.101562 C 490.09375 312.425781 491.308594 313.535156 492.773438 313.539062 " fill-opacity="1" fill-rule="nonzero"/><path fill="#f9a72b" d="M 516.421875 310.59375 C 516.457031 309.296875 515.382812 308.28125 513.953125 308.257812 C 512.519531 308.238281 511.40625 309.21875 511.394531 310.511719 C 511.386719 311.769531 512.425781 312.753906 513.804688 312.796875 C 515.246094 312.84375 516.386719 311.886719 516.421875 310.59375 " fill-opacity="1" fill-rule="nonzero"/><path fill="#f9a72b" d="M 438.71875 337.707031 C 440.152344 337.710938 441.25 336.71875 441.242188 335.421875 C 441.230469 334.128906 440.121094 333.148438 438.683594 333.167969 C 437.296875 333.1875 436.230469 334.152344 436.214844 335.40625 C 436.195312 336.703125 437.285156 337.703125 438.71875 337.707031 " fill-opacity="1" fill-rule="nonzero"/><path fill="#f9a72b" d="M 422.660156 368.417969 C 424.101562 368.4375 425.207031 367.464844 425.199219 366.164062 C 425.199219 364.910156 424.152344 363.941406 422.765625 363.921875 C 421.320312 363.898438 420.222656 364.875 420.222656 366.171875 C 420.226562 367.429688 421.273438 368.398438 422.660156 368.417969 " fill-opacity="1" fill-rule="nonzero"/><path fill="#f9a72b" d="M 471.90625 313.890625 C 473.195312 313.871094 474.300781 312.832031 474.261719 311.675781 C 474.21875 310.546875 473.136719 309.589844 471.890625 309.574219 C 470.605469 309.5625 469.472656 310.582031 469.476562 311.742188 C 469.484375 312.90625 470.621094 313.914062 471.90625 313.890625 " fill-opacity="1" fill-rule="nonzero"/><path fill="#f9a72b" d="M 442.769531 329.664062 C 444.046875 329.648438 445.007812 328.769531 445.011719 327.617188 C 445.023438 326.421875 444.019531 325.523438 442.695312 325.539062 C 441.417969 325.558594 440.457031 326.4375 440.449219 327.589844 C 440.441406 328.785156 441.445312 329.683594 442.769531 329.664062 " fill-opacity="1" fill-rule="nonzero"/><path fill="#f9a72b" d="M 459.15625 317.773438 C 460.425781 317.792969 461.414062 316.925781 461.433594 315.785156 C 461.449219 314.640625 460.492188 313.746094 459.230469 313.730469 C 457.960938 313.714844 456.96875 314.578125 456.949219 315.71875 C 456.933594 316.863281 457.890625 317.757812 459.15625 317.773438 " fill-opacity="1" fill-rule="nonzero"/><path fill="#f9a72b" d="M 420.96875 374.074219 C 421.003906 372.914062 420.082031 372.007812 418.816406 371.964844 C 417.492188 371.917969 416.460938 372.792969 416.453125 373.980469 C 416.441406 375.136719 417.386719 376.023438 418.65625 376.042969 C 419.941406 376.066406 420.933594 375.21875 420.96875 374.074219 " fill-opacity="1" fill-rule="nonzero"/><path fill="#f9a72b" d="M 484.363281 309.539062 C 485.625 309.527344 486.582031 308.628906 486.566406 307.484375 C 486.550781 306.34375 485.558594 305.476562 484.289062 305.492188 C 483.027344 305.507812 482.066406 306.402344 482.085938 307.546875 C 482.101562 308.691406 483.09375 309.554688 484.363281 309.539062 " fill-opacity="1" fill-rule="nonzero"/><path fill="#f9a72b" d="M 505.511719 308.976562 C 506.78125 308.953125 507.738281 308.070312 507.738281 306.917969 C 507.738281 305.722656 506.730469 304.828125 505.402344 304.855469 C 504.128906 304.875 503.175781 305.757812 503.171875 306.910156 C 503.171875 308.105469 504.183594 309 505.511719 308.976562 " fill-opacity="1" fill-rule="nonzero"/><path fill="#f9a72b" d="M 423.921875 402.273438 C 422.597656 402.230469 421.5625 403.109375 421.542969 404.296875 C 421.527344 405.457031 422.464844 406.355469 423.730469 406.394531 C 425.054688 406.4375 426.089844 405.554688 426.109375 404.371094 C 426.125 403.214844 425.183594 402.3125 423.921875 402.273438 " fill-opacity="1" fill-rule="nonzero"/><path fill="#f9a72b" d="M 421.601562 393.050781 C 421.582031 391.96875 420.621094 391.097656 419.421875 391.074219 C 418.175781 391.054688 417.160156 391.945312 417.152344 393.070312 C 417.140625 394.195312 418.136719 395.101562 419.386719 395.09375 C 420.628906 395.09375 421.625 394.175781 421.601562 393.050781 " fill-opacity="1" fill-rule="nonzero"/><path fill="#f9a72b" d="M 496.816406 305.28125 C 497.882812 305.261719 498.78125 304.421875 498.757812 303.464844 C 498.734375 302.507812 497.800781 301.695312 496.742188 301.714844 C 495.683594 301.734375 494.78125 302.578125 494.804688 303.53125 C 494.828125 304.492188 495.761719 305.304688 496.816406 305.28125 " fill-opacity="1" fill-rule="nonzero"/><path fill="#f9a72b" d="M 446.757812 321.757812 C 447.820312 321.742188 448.726562 320.90625 448.710938 319.949219 C 448.699219 318.988281 447.769531 318.171875 446.710938 318.183594 C 445.648438 318.199219 444.742188 319.039062 444.757812 319.992188 C 444.773438 320.953125 445.703125 321.769531 446.757812 321.757812 " fill-opacity="1" fill-rule="nonzero"/><path fill="#f9a72b" d="M 416.621094 381.660156 C 416.636719 380.730469 415.773438 379.921875 414.738281 379.910156 C 413.703125 379.890625 412.808594 380.671875 412.789062 381.609375 C 412.773438 382.542969 413.636719 383.347656 414.675781 383.363281 C 415.710938 383.378906 416.601562 382.597656 416.621094 381.660156 " fill-opacity="1" fill-rule="nonzero"/><path fill="#f9a72b" d="M 422.195312 348.769531 C 423.265625 348.804688 424.121094 348.070312 424.128906 347.101562 C 424.140625 346.179688 423.363281 345.4375 422.339844 345.40625 C 421.273438 345.371094 420.417969 346.105469 420.40625 347.070312 C 420.394531 347.996094 421.175781 348.734375 422.195312 348.769531 " fill-opacity="1" fill-rule="nonzero"/><path fill="#f9a72b" d="M 526.582031 304.882812 C 525.546875 304.890625 524.769531 305.601562 524.785156 306.539062 C 524.800781 307.4375 525.546875 308.117188 526.535156 308.140625 C 527.574219 308.160156 528.375 307.46875 528.390625 306.53125 C 528.402344 305.597656 527.621094 304.882812 526.582031 304.882812 " fill-opacity="1" fill-rule="nonzero"/><path fill="#f9a72b" d="M 426.296875 341.082031 C 427.332031 341.066406 428.097656 340.347656 428.074219 339.40625 C 428.046875 338.476562 427.230469 337.792969 426.195312 337.828125 C 425.207031 337.863281 424.476562 338.554688 424.472656 339.449219 C 424.46875 340.386719 425.261719 341.089844 426.296875 341.082031 " fill-opacity="1" fill-rule="nonzero"/><path fill="#f9a72b" d="M 418.179688 356.546875 C 419.21875 356.582031 420.039062 355.898438 420.066406 354.96875 C 420.09375 354.035156 419.324219 353.308594 418.292969 353.296875 C 417.253906 353.28125 416.460938 353.984375 416.460938 354.921875 C 416.464844 355.820312 417.195312 356.511719 418.179688 356.546875 " fill-opacity="1" fill-rule="nonzero"/><path fill="#f9a72b" d="M 463.171875 309.601562 C 464.078125 309.617188 464.796875 309.007812 464.839844 308.191406 C 464.882812 307.332031 464.167969 306.648438 463.21875 306.636719 C 462.3125 306.621094 461.59375 307.230469 461.550781 308.046875 C 461.507812 308.902344 462.21875 309.589844 463.171875 309.601562 " fill-opacity="1" fill-rule="nonzero"/><path fill="#f9a72b" d="M 430.167969 333.300781 C 431.121094 333.355469 431.890625 332.722656 431.917969 331.867188 C 431.945312 331.046875 431.28125 330.386719 430.382812 330.339844 C 429.429688 330.285156 428.660156 330.921875 428.632812 331.773438 C 428.609375 332.597656 429.269531 333.253906 430.167969 333.300781 " fill-opacity="1" fill-rule="nonzero"/><path fill="#f9a72b" d="M 517.964844 301.410156 C 517.015625 301.386719 516.269531 302.039062 516.269531 302.898438 C 516.269531 303.71875 516.953125 304.355469 517.859375 304.378906 C 518.808594 304.40625 519.554688 303.753906 519.554688 302.894531 C 519.554688 302.074219 518.871094 301.4375 517.964844 301.410156 " fill-opacity="1" fill-rule="nonzero"/><path fill="#f9a72b" d="M 475.925781 305.386719 C 476.832031 305.359375 477.515625 304.722656 477.515625 303.902344 C 477.515625 303.039062 476.773438 302.390625 475.820312 302.417969 C 474.917969 302.441406 474.230469 303.082031 474.230469 303.902344 C 474.230469 304.757812 474.976562 305.410156 475.925781 305.386719 " fill-opacity="1" fill-rule="nonzero"/><path fill="#f9a72b" d="M 414.171875 364 C 415.097656 364.039062 415.820312 363.457031 415.859375 362.636719 C 415.910156 361.796875 415.261719 361.148438 414.351562 361.105469 C 413.425781 361.066406 412.703125 361.648438 412.660156 362.472656 C 412.613281 363.308594 413.257812 363.960938 414.171875 364 " fill-opacity="1" fill-rule="nonzero"/><path fill="#f9a72b" d="M 419.84375 410.546875 C 418.929688 410.535156 418.230469 411.171875 418.246094 411.996094 C 418.261719 412.820312 418.996094 413.429688 419.910156 413.390625 L 420.152344 413.335938 L 421.347656 412.183594 L 421.398438 411.9375 C 421.378906 411.152344 420.714844 410.554688 419.84375 410.546875 " fill-opacity="1" fill-rule="nonzero"/><path fill="#f9a72b" d="M 415.382812 399.273438 C 414.453125 399.265625 413.777344 399.875 413.769531 400.710938 C 413.765625 401.546875 414.4375 402.160156 415.367188 402.164062 C 416.292969 402.171875 416.972656 401.566406 416.972656 400.726562 C 416.980469 399.890625 416.308594 399.273438 415.382812 399.273438 " fill-opacity="1" fill-rule="nonzero"/><path fill="#f9a72b" d="M 488.378906 301.128906 C 489.175781 301.109375 489.769531 300.539062 489.707031 299.816406 C 489.640625 299.066406 489.164062 298.664062 488.332031 298.640625 C 487.527344 298.617188 486.9375 299.175781 486.945312 299.902344 C 486.960938 300.625 487.574219 301.15625 488.378906 301.128906 " fill-opacity="1" fill-rule="nonzero"/><path fill="#f9a72b" d="M 410.726562 388.261719 C 409.890625 388.25 409.414062 388.675781 409.359375 389.425781 C 409.304688 390.144531 409.941406 390.71875 410.734375 390.683594 C 411.574219 390.644531 411.984375 390.199219 412.066406 389.464844 C 411.976562 388.730469 411.566406 388.269531 410.726562 388.261719 " fill-opacity="1" fill-rule="nonzero"/><path fill="#f9a72b" d="M 450.789062 313.382812 C 451.585938 313.363281 452.179688 312.792969 452.113281 312.066406 C 452.050781 311.320312 451.574219 310.914062 450.746094 310.894531 C 449.941406 310.871094 449.34375 311.429688 449.359375 312.15625 C 449.371094 312.878906 449.980469 313.40625 450.789062 313.382812 " fill-opacity="1" fill-rule="nonzero"/><path fill="#f9a72b" d="M 411.566406 370.394531 C 411.574219 369.636719 411.042969 369.261719 410.234375 369.175781 C 409.429688 369.289062 408.917969 369.679688 408.945312 370.433594 C 408.972656 371.128906 409.453125 371.5625 410.226562 371.570312 C 411.050781 371.582031 411.5625 371.140625 411.566406 370.394531 " fill-opacity="1" fill-rule="nonzero"/><path fill="#f9a72b" d="M 434 325.167969 C 434.835938 325.207031 435.269531 324.738281 435.398438 324.015625 C 435.308594 323.285156 434.898438 322.808594 434.058594 322.804688 C 433.285156 322.796875 432.789062 323.222656 432.746094 323.910156 C 432.703125 324.65625 433.179688 325.132812 434 325.167969 " fill-opacity="1" fill-rule="nonzero"/><path fill="#f9a72b" d="M 509.511719 300.488281 C 510.308594 300.367188 510.816406 299.96875 510.769531 299.214844 C 510.730469 298.519531 510.242188 298.09375 509.46875 298.097656 C 508.640625 298.101562 508.140625 298.550781 508.148438 299.296875 C 508.160156 300.054688 508.695312 300.421875 509.511719 300.488281 " fill-opacity="1" fill-rule="nonzero"/><path fill="#f9a72b" d="M 438.0625 317.144531 C 438.355469 316.886719 438.832031 316.65625 438.875 316.371094 C 438.917969 316.101562 438.511719 315.769531 438.144531 315.234375 C 437.699219 315.726562 437.207031 316.039062 437.25 316.273438 C 437.304688 316.597656 437.773438 316.855469 438.0625 317.144531 " fill-opacity="1" fill-rule="nonzero"/><path fill="#f9a72b" d="M 500.800781 296.433594 C 501.113281 296.464844 501.480469 296.066406 501.824219 295.859375 C 501.820312 295.71875 501.8125 295.582031 501.804688 295.445312 C 501.480469 295.320312 501.164062 295.132812 500.828125 295.078125 C 500.332031 295 499.753906 295.078125 499.917969 295.6875 C 500 295.996094 500.464844 296.402344 500.800781 296.433594 " fill-opacity="1" fill-rule="nonzero"/><path fill="#f9a72b" d="M 405.867188 377.167969 C 405.867188 377.824219 405.867188 378.265625 405.867188 378.992188 C 406.371094 378.722656 406.785156 378.605469 406.992188 378.347656 C 407.125 378.183594 407.070312 377.730469 406.90625 377.566406 C 406.695312 377.355469 406.285156 377.316406 405.867188 377.167969 " fill-opacity="1" fill-rule="nonzero"/><path fill="#f9a72b" d="M 467.441406 300.992188 C 467.777344 300.863281 467.941406 300.371094 468.179688 300.039062 C 468.0625 299.933594 467.945312 299.828125 467.824219 299.722656 C 467.3125 299.914062 466.800781 300.109375 466.289062 300.300781 C 466.289062 300.421875 466.28125 300.542969 466.28125 300.667969 C 466.675781 300.789062 467.15625 301.09375 467.441406 300.992188 " fill-opacity="1" fill-rule="nonzero"/><path fill="#fff200" d="M 526.535156 308.136719 C 525.546875 308.117188 524.800781 307.4375 524.78125 306.542969 C 524.769531 305.601562 525.546875 304.890625 526.582031 304.882812 C 527.621094 304.882812 528.402344 305.597656 528.390625 306.53125 C 528.375 307.46875 527.570312 308.164062 526.535156 308.136719 Z M 521.207031 316.1875 C 520.414062 315.746094 519.882812 314.949219 519.917969 314.058594 C 519.964844 312.777344 521.175781 311.734375 522.59375 311.738281 C 523.484375 311.742188 524.269531 312.15625 524.757812 312.773438 Z M 517.859375 304.378906 C 516.953125 304.355469 516.269531 303.71875 516.269531 302.898438 C 516.269531 302.039062 517.015625 301.386719 517.964844 301.414062 C 518.871094 301.441406 519.554688 302.074219 519.554688 302.894531 C 519.554688 303.753906 518.808594 304.40625 517.859375 304.378906 Z M 515.296875 321.867188 C 515.363281 320.410156 516.667969 319.1875 518.246094 319.03125 Z M 511.394531 310.511719 C 511.402344 309.21875 512.519531 308.238281 513.953125 308.257812 C 515.382812 308.28125 516.457031 309.296875 516.421875 310.59375 C 516.386719 311.886719 515.246094 312.847656 513.804688 312.800781 C 512.421875 312.753906 511.386719 311.769531 511.394531 310.511719 Z M 509.8125 321.199219 C 508.089844 321.167969 506.757812 319.925781 506.761719 318.359375 C 506.765625 316.753906 508.15625 315.515625 509.9375 315.527344 C 511.710938 315.542969 513.070312 316.808594 513.042969 318.421875 C 513.015625 320.015625 511.601562 321.234375 509.8125 321.199219 Z M 505.777344 329.269531 C 503.734375 329.21875 502.199219 327.722656 502.273438 325.859375 C 502.347656 324.054688 503.957031 322.691406 505.96875 322.71875 C 508.015625 322.75 509.578125 324.226562 509.53125 326.082031 C 509.480469 327.929688 507.835938 329.328125 505.777344 329.269531 Z M 499.6875 336.875 C 498.570312 336.21875 497.847656 335.070312 497.875 333.738281 C 497.914062 331.734375 499.722656 330.171875 501.96875 330.195312 C 503.273438 330.210938 504.398438 330.785156 505.113281 331.65625 Z M 493.890625 342.445312 C 493.796875 342.136719 493.734375 341.8125 493.730469 341.480469 C 493.714844 339.332031 495.714844 337.515625 498.097656 337.503906 C 498.386719 337.503906 498.675781 337.53125 498.953125 337.582031 Z M 489.433594 341.640625 C 487.160156 341.640625 485.257812 339.925781 485.238281 337.871094 C 485.222656 335.777344 487.183594 334.019531 489.5 334.050781 C 491.78125 334.085938 493.660156 335.824219 493.640625 337.878906 C 493.621094 339.933594 491.714844 341.644531 489.433594 341.640625 Z M 489.785156 346.394531 L 486.492188 349.554688 C 485.847656 349.695312 485.148438 349.726562 484.441406 349.59375 C 484.191406 349.546875 483.9375 349.550781 483.683594 349.527344 L 483.6875 349.53125 C 484.316406 350.035156 484.78125 350.457031 485.136719 350.863281 L 478.878906 356.878906 C 478.742188 356.761719 478.625 356.660156 478.511719 356.570312 C 476.703125 355.152344 476.265625 353.03125 477.417969 351.226562 C 478.527344 349.480469 480.773438 348.722656 482.980469 349.355469 C 483.226562 349.425781 483.472656 349.496094 483.722656 349.5625 C 483.503906 349.402344 483.300781 349.21875 483.066406 349.082031 C 481.074219 347.878906 480.414062 345.652344 481.515625 343.789062 C 482.597656 341.964844 485.019531 341.1875 487.144531 341.976562 C 489.097656 342.710938 490.160156 344.558594 489.785156 346.394531 Z M 472.9375 362.589844 C 472.644531 361.84375 472.585938 361.054688 472.75 360.269531 C 471.613281 360.6875 470.46875 361.28125 469.242188 361.519531 C 467.90625 361.777344 466.699219 361.21875 465.742188 360.332031 C 464.304688 358.992188 464.097656 356.90625 465.214844 355.332031 C 466.359375 353.734375 468.617188 353.066406 470.589844 353.75 C 472.734375 354.496094 473.71875 356.292969 473.308594 358.882812 C 474.726562 357.195312 476.488281 356.597656 478.738281 357.015625 Z M 466.378906 368.890625 C 464.761719 369.453125 463.351562 369.261719 462.089844 368.304688 C 460.492188 367.097656 460.007812 365.074219 460.914062 363.386719 C 461.835938 361.667969 463.953125 360.757812 466.023438 361.1875 C 468.261719 361.648438 469.398438 363.21875 469.46875 365.925781 Z M 458.625 376.347656 C 458.398438 376.230469 458.175781 376.101562 457.976562 375.957031 C 456.292969 374.746094 456.027344 372.523438 457.171875 370.859375 C 458.289062 369.234375 460.511719 368.539062 462.507812 369.195312 C 463.40625 369.492188 464.097656 369.980469 464.582031 370.625 Z M 452.851562 381.898438 C 452.695312 381.480469 452.589844 381.042969 452.597656 380.578125 C 452.644531 378.40625 454.679688 376.632812 457.050781 376.6875 C 457.417969 376.695312 457.769531 376.761719 458.109375 376.847656 Z M 448.5 380.648438 C 446.21875 380.644531 444.449219 379.003906 444.492188 376.925781 C 444.53125 374.917969 446.335938 373.355469 448.585938 373.382812 C 450.8125 373.410156 452.554688 375.027344 452.535156 377.054688 C 452.519531 379.070312 450.742188 380.65625 448.5 380.648438 Z M 447.324219 387.210938 L 447.140625 387.390625 C 446.445312 387.96875 445.511719 388.320312 444.464844 388.3125 C 442.285156 388.292969 440.632812 386.738281 440.675781 384.757812 C 440.722656 382.839844 442.414062 381.367188 444.554688 381.386719 C 446.734375 381.40625 448.390625 382.960938 448.347656 384.941406 C 448.324219 385.832031 447.9375 386.621094 447.324219 387.210938 Z M 438.867188 395.347656 C 437.714844 394.8125 436.929688 393.738281 436.933594 392.472656 C 436.9375 390.660156 438.535156 389.238281 440.546875 389.253906 C 441.851562 389.265625 442.957031 389.890625 443.566406 390.824219 Z M 433.296875 400.703125 C 433.25 400.515625 433.226562 400.316406 433.226562 400.121094 C 433.222656 398.496094 434.796875 397.105469 436.582031 397.15625 C 436.703125 397.160156 436.820312 397.183594 436.9375 397.199219 Z M 428.679688 388.886719 C 428.667969 387.273438 430.035156 386.027344 431.8125 386.019531 C 433.601562 386.011719 434.976562 387.238281 434.988281 388.851562 C 434.996094 390.464844 433.632812 391.707031 431.855469 391.71875 C 430.066406 391.726562 428.6875 390.492188 428.679688 388.886719 Z M 427.761719 399.242188 C 426.222656 399.199219 424.949219 397.984375 425.015625 396.613281 C 425.078125 395.261719 426.355469 394.152344 427.84375 394.15625 C 429.375 394.167969 430.667969 395.359375 430.640625 396.734375 C 430.613281 398.125 429.28125 399.285156 427.761719 399.242188 Z M 423.730469 406.394531 C 422.460938 406.355469 421.527344 405.457031 421.542969 404.296875 C 421.5625 403.109375 422.597656 402.230469 423.921875 402.273438 C 425.1875 402.3125 426.125 403.214844 426.113281 404.371094 C 426.085938 405.554688 425.054688 406.4375 423.730469 406.394531 Z M 421.351562 412.183594 L 420.152344 413.335938 L 419.910156 413.390625 C 418.992188 413.429688 418.265625 412.820312 418.246094 411.996094 C 418.230469 411.171875 418.929688 410.535156 419.84375 410.546875 C 420.714844 410.554688 421.378906 411.152344 421.394531 411.9375 Z M 417.152344 393.070312 C 417.160156 391.945312 418.175781 391.054688 419.421875 391.074219 C 420.621094 391.097656 421.582031 391.96875 421.601562 393.046875 C 421.621094 394.175781 420.632812 395.089844 419.386719 395.09375 C 418.140625 395.101562 417.140625 394.195312 417.152344 393.070312 Z M 416.453125 373.980469 C 416.460938 372.792969 417.492188 371.917969 418.816406 371.964844 C 420.082031 372.007812 421.003906 372.914062 420.96875 374.078125 C 420.933594 375.222656 419.941406 376.066406 418.660156 376.042969 C 417.386719 376.019531 416.441406 375.136719 416.453125 373.980469 Z M 415.367188 402.164062 C 414.4375 402.160156 413.765625 401.546875 413.769531 400.710938 C 413.777344 399.875 414.453125 399.265625 415.382812 399.273438 C 416.308594 399.273438 416.984375 399.890625 416.972656 400.726562 C 416.972656 401.566406 416.292969 402.171875 415.367188 402.164062 Z M 412.792969 381.609375 C 412.8125 380.675781 413.703125 379.894531 414.738281 379.90625 C 415.773438 379.921875 416.636719 380.730469 416.621094 381.660156 C 416.597656 382.597656 415.710938 383.382812 414.675781 383.363281 C 413.636719 383.347656 412.773438 382.539062 412.792969 381.609375 Z M 414.351562 361.109375 C 415.261719 361.148438 415.90625 361.796875 415.859375 362.632812 C 415.816406 363.457031 415.097656 364.042969 414.171875 364 C 413.257812 363.960938 412.613281 363.308594 412.660156 362.472656 C 412.703125 361.648438 413.421875 361.066406 414.351562 361.109375 Z M 410.734375 390.683594 C 409.941406 390.71875 409.304688 390.144531 409.359375 389.425781 C 409.414062 388.675781 409.890625 388.253906 410.726562 388.261719 C 411.566406 388.269531 411.976562 388.730469 412.066406 389.460938 C 411.984375 390.199219 411.574219 390.644531 410.734375 390.683594 Z M 408.945312 370.433594 C 408.917969 369.679688 409.429688 369.285156 410.234375 369.179688 C 411.042969 369.261719 411.574219 369.636719 411.566406 370.390625 C 411.5625 371.136719 411.050781 371.582031 410.226562 371.570312 C 409.453125 371.5625 408.972656 371.128906 408.945312 370.433594 Z M 406.992188 378.351562 C 406.785156 378.605469 406.371094 378.722656 405.867188 378.992188 C 405.867188 378.265625 405.867188 377.824219 405.867188 377.167969 C 406.285156 377.316406 406.695312 377.359375 406.90625 377.5625 C 407.070312 377.730469 407.125 378.183594 406.992188 378.351562 Z M 418.292969 353.292969 C 419.320312 353.308594 420.097656 354.035156 420.066406 354.96875 C 420.039062 355.898438 419.21875 356.582031 418.179688 356.546875 C 417.195312 356.511719 416.464844 355.820312 416.460938 354.921875 C 416.460938 353.984375 417.25 353.28125 418.292969 353.292969 Z M 422.765625 363.921875 C 424.152344 363.941406 425.199219 364.910156 425.199219 366.167969 C 425.207031 367.464844 424.101562 368.4375 422.660156 368.417969 C 421.273438 368.398438 420.226562 367.433594 420.222656 366.171875 C 420.21875 364.875 421.324219 363.898438 422.765625 363.921875 Z M 422.339844 345.40625 C 423.359375 345.4375 424.140625 346.179688 424.128906 347.105469 C 424.121094 348.070312 423.265625 348.804688 422.195312 348.769531 C 421.171875 348.734375 420.394531 347.996094 420.40625 347.070312 C 420.417969 346.105469 421.269531 345.367188 422.339844 345.40625 Z M 426.195312 337.828125 C 427.230469 337.792969 428.046875 338.476562 428.074219 339.410156 C 428.097656 340.34375 427.332031 341.070312 426.296875 341.078125 C 425.261719 341.089844 424.46875 340.390625 424.472656 339.449219 C 424.472656 338.554688 425.207031 337.863281 426.195312 337.828125 Z M 430.382812 330.339844 C 431.28125 330.386719 431.945312 331.046875 431.921875 331.867188 C 431.890625 332.722656 431.121094 333.355469 430.167969 333.304688 C 429.269531 333.253906 428.605469 332.597656 428.632812 331.773438 C 428.660156 330.917969 429.429688 330.289062 430.382812 330.339844 Z M 434.707031 340.664062 C 436.171875 340.652344 437.394531 341.75 437.390625 343.078125 C 437.386719 344.398438 436.152344 345.492188 434.6875 345.476562 C 433.222656 345.457031 432.023438 344.335938 432.058594 343.015625 C 432.09375 341.730469 433.28125 340.675781 434.707031 340.664062 Z M 434.058594 322.804688 C 434.894531 322.808594 435.308594 323.28125 435.394531 324.015625 C 435.269531 324.742188 434.835938 325.210938 434 325.167969 C 433.179688 325.132812 432.699219 324.65625 432.746094 323.910156 C 432.789062 323.21875 433.285156 322.796875 434.058594 322.804688 Z M 438.683594 333.167969 C 440.121094 333.144531 441.230469 334.128906 441.242188 335.421875 C 441.25 336.714844 440.152344 337.710938 438.71875 337.707031 C 437.285156 337.703125 436.195312 336.703125 436.214844 335.40625 C 436.230469 334.152344 437.296875 333.1875 438.683594 333.167969 Z M 438.144531 315.238281 C 438.507812 315.769531 438.921875 316.101562 438.875 316.371094 C 438.832031 316.65625 438.355469 316.886719 438.0625 317.140625 C 437.773438 316.855469 437.304688 316.59375 437.25 316.277344 C 437.207031 316.039062 437.699219 315.722656 438.144531 315.238281 Z M 442.695312 325.539062 C 444.015625 325.523438 445.023438 326.417969 445.011719 327.617188 C 445.007812 328.769531 444.042969 329.648438 442.769531 329.664062 C 441.445312 329.683594 440.441406 328.785156 440.449219 327.589844 C 440.457031 326.4375 441.417969 325.558594 442.695312 325.539062 Z M 446.710938 318.183594 C 447.769531 318.171875 448.699219 318.988281 448.710938 319.945312 C 448.726562 320.90625 447.820312 321.742188 446.757812 321.757812 C 445.703125 321.769531 444.773438 320.953125 444.757812 319.992188 C 444.742188 319.039062 445.648438 318.199219 446.710938 318.183594 Z M 451.199219 328.566406 C 452.871094 328.570312 454.140625 329.742188 454.121094 331.257812 C 454.101562 332.761719 452.789062 333.898438 451.109375 333.871094 C 449.492188 333.84375 448.25 332.703125 448.25 331.230469 C 448.238281 329.71875 449.523438 328.5625 451.199219 328.566406 Z M 450.746094 310.894531 C 451.574219 310.917969 452.050781 311.324219 452.113281 312.066406 C 452.179688 312.792969 451.585938 313.363281 450.785156 313.382812 C 449.980469 313.40625 449.371094 312.882812 449.359375 312.15625 C 449.34375 311.429688 449.941406 310.871094 450.746094 310.894531 Z M 455.351562 321.171875 C 456.820312 321.246094 457.9375 322.386719 457.859375 323.730469 C 457.78125 325.058594 456.519531 326.070312 455.027344 325.996094 C 453.554688 325.925781 452.433594 324.789062 452.515625 323.441406 C 452.59375 322.109375 453.855469 321.101562 455.351562 321.171875 Z M 459.226562 313.730469 C 460.492188 313.746094 461.449219 314.640625 461.433594 315.785156 C 461.414062 316.925781 460.421875 317.792969 459.15625 317.777344 C 457.890625 317.757812 456.933594 316.863281 456.949219 315.71875 C 456.96875 314.578125 457.960938 313.714844 459.226562 313.730469 Z M 463.21875 306.632812 C 464.167969 306.648438 464.878906 307.332031 464.839844 308.191406 C 464.796875 309.007812 464.078125 309.617188 463.171875 309.601562 C 462.21875 309.589844 461.507812 308.90625 461.550781 308.046875 C 461.59375 307.230469 462.3125 306.625 463.21875 306.632812 Z M 467.910156 316.785156 C 469.433594 316.808594 470.734375 318.011719 470.726562 319.382812 C 470.714844 320.757812 469.402344 321.941406 467.878906 321.949219 C 466.3125 321.957031 464.960938 320.707031 465.007812 319.304688 C 465.054688 317.921875 466.394531 316.761719 467.910156 316.785156 Z M 466.285156 300.300781 C 466.796875 300.109375 467.3125 299.917969 467.824219 299.722656 C 467.945312 299.828125 468.0625 299.933594 468.179688 300.039062 C 467.9375 300.371094 467.777344 300.863281 467.445312 300.992188 C 467.15625 301.097656 466.675781 300.789062 466.285156 300.667969 C 466.285156 300.542969 466.285156 300.421875 466.285156 300.300781 Z M 471.890625 309.574219 C 473.140625 309.589844 474.21875 310.546875 474.257812 311.679688 C 474.300781 312.828125 473.195312 313.871094 471.90625 313.894531 C 470.621094 313.914062 469.484375 312.90625 469.480469 311.742188 C 469.472656 310.582031 470.605469 309.566406 471.890625 309.574219 Z M 475.820312 302.417969 C 476.769531 302.390625 477.515625 303.042969 477.515625 303.902344 C 477.515625 304.722656 476.832031 305.359375 475.925781 305.386719 C 474.976562 305.410156 474.230469 304.757812 474.230469 303.898438 C 474.230469 303.082031 474.914062 302.441406 475.820312 302.417969 Z M 480.386719 312.769531 C 481.917969 312.808594 483.203125 314.015625 483.179688 315.386719 C 483.15625 316.761719 481.828125 317.941406 480.308594 317.933594 C 478.738281 317.921875 477.398438 316.664062 477.460938 315.265625 C 477.527344 313.878906 478.878906 312.726562 480.386719 312.769531 Z M 484.289062 305.496094 C 485.558594 305.476562 486.550781 306.34375 486.566406 307.484375 C 486.585938 308.632812 485.625 309.527344 484.363281 309.539062 C 483.09375 309.554688 482.101562 308.691406 482.085938 307.546875 C 482.0625 306.402344 483.023438 305.511719 484.289062 305.496094 Z M 488.332031 298.644531 C 489.164062 298.660156 489.640625 299.066406 489.707031 299.816406 C 489.769531 300.539062 489.175781 301.109375 488.378906 301.128906 C 487.570312 301.152344 486.960938 300.628906 486.945312 299.90625 C 486.9375 299.175781 487.527344 298.617188 488.332031 298.644531 Z M 492.839844 308.726562 C 494.261719 308.757812 495.429688 309.828125 495.441406 311.113281 C 495.453125 312.433594 494.238281 313.542969 492.773438 313.539062 C 491.308594 313.535156 490.09375 312.425781 490.117188 311.101562 C 490.132812 309.777344 491.375 308.695312 492.839844 308.726562 Z M 496.742188 301.714844 C 497.800781 301.691406 498.738281 302.507812 498.757812 303.464844 C 498.78125 304.421875 497.882812 305.265625 496.816406 305.285156 C 495.761719 305.304688 494.828125 304.492188 494.804688 303.53125 C 494.78125 302.578125 495.683594 301.734375 496.742188 301.714844 Z M 493.984375 322.40625 C 493.964844 320.699219 495.523438 319.269531 497.417969 319.25 C 499.308594 319.234375 500.894531 320.644531 500.917969 322.355469 C 500.933594 324.0625 499.371094 325.492188 497.476562 325.511719 C 495.589844 325.527344 494 324.121094 493.984375 322.40625 Z M 493.425781 326.734375 C 495.601562 326.726562 497.300781 328.257812 497.300781 330.222656 C 497.292969 332.183594 495.582031 333.710938 493.410156 333.691406 C 491.238281 333.675781 489.5625 332.121094 489.59375 330.15625 C 489.625 328.238281 491.296875 326.742188 493.425781 326.734375 Z M 485.601562 318.828125 C 485.566406 317.171875 486.957031 315.894531 488.785156 315.898438 C 490.566406 315.90625 491.941406 317.140625 491.945312 318.753906 C 491.953125 320.363281 490.597656 321.613281 488.816406 321.632812 C 487.027344 321.648438 485.632812 320.433594 485.601562 318.828125 Z M 481.398438 326.507812 C 481.4375 324.707031 483.042969 323.324219 485.0625 323.351562 C 487.066406 323.378906 488.609375 324.8125 488.589844 326.636719 C 488.574219 328.449219 486.996094 329.851562 484.976562 329.847656 C 482.921875 329.839844 481.355469 328.382812 481.398438 326.507812 Z M 481 337.792969 C 478.855469 337.796875 477.03125 336.148438 477.046875 334.214844 C 477.0625 332.273438 478.898438 330.640625 481.035156 330.671875 C 483.148438 330.703125 484.90625 332.292969 484.929688 334.199219 C 484.960938 336.128906 483.148438 337.785156 481 337.792969 Z M 476.96875 345.859375 C 474.695312 345.851562 472.789062 344.132812 472.78125 342.078125 C 472.777344 340.023438 474.667969 338.292969 476.941406 338.273438 C 479.21875 338.246094 481.140625 339.945312 481.1875 342.003906 C 481.226562 344.09375 479.285156 345.871094 476.96875 345.859375 Z M 472.9375 345.742188 C 475.308594 345.707031 477.332031 347.5 477.363281 349.660156 C 477.398438 351.800781 475.414062 353.628906 473.023438 353.660156 C 470.652344 353.6875 468.628906 351.898438 468.597656 349.738281 C 468.5625 347.597656 470.546875 345.769531 472.9375 345.742188 Z M 473.023438 322.933594 C 473.058594 321.304688 474.644531 319.941406 476.429688 320.007812 C 478.195312 320.074219 479.648438 321.453125 479.613281 323.03125 C 479.578125 324.664062 477.988281 326.023438 476.207031 325.957031 C 474.441406 325.894531 472.988281 324.511719 473.023438 322.933594 Z M 475.894531 330.625 C 475.894531 332.441406 474.324219 333.855469 472.304688 333.851562 C 470.292969 333.851562 468.726562 332.429688 468.730469 330.605469 C 468.734375 328.789062 470.304688 327.375 472.320312 327.378906 C 474.335938 327.382812 475.902344 328.804688 475.894531 330.625 Z M 468.230469 341.914062 C 466.101562 341.878906 464.464844 340.363281 464.476562 338.425781 C 464.488281 336.457031 466.203125 334.953125 468.390625 334.984375 C 470.519531 335.019531 472.15625 336.539062 472.144531 338.472656 C 472.132812 340.441406 470.421875 341.945312 468.230469 341.914062 Z M 464.320312 349.714844 C 462.035156 349.722656 460.257812 348.089844 460.285156 346.019531 C 460.308594 344.007812 462.105469 342.433594 464.347656 342.453125 C 466.582031 342.464844 468.335938 344.070312 468.328125 346.097656 C 468.324219 348.117188 466.554688 349.710938 464.320312 349.714844 Z M 460.328125 357.675781 C 458.0625 357.691406 456.136719 355.960938 456.140625 353.910156 C 456.144531 351.859375 458.074219 350.136719 460.335938 350.160156 C 462.566406 350.179688 464.429688 351.851562 464.464844 353.871094 C 464.5 355.910156 462.601562 357.65625 460.328125 357.675781 Z M 456.296875 365.335938 C 454.039062 365.335938 452.125 363.621094 452.109375 361.574219 C 452.09375 359.539062 453.980469 357.800781 456.242188 357.765625 C 458.496094 357.730469 460.433594 359.425781 460.488281 361.476562 C 460.546875 363.542969 458.601562 365.335938 456.296875 365.335938 Z M 452.570312 365.625 C 454.800781 365.65625 456.65625 367.335938 456.679688 369.351562 C 456.707031 371.394531 454.792969 373.136719 452.523438 373.144531 C 450.257812 373.144531 448.339844 371.410156 448.355469 369.363281 C 448.375 367.3125 450.308594 365.59375 452.570312 365.625 Z M 444.066406 357.917969 C 444.074219 356.011719 445.808594 354.488281 447.921875 354.519531 C 449.980469 354.550781 451.636719 356.085938 451.628906 357.949219 C 451.617188 359.855469 449.890625 361.378906 447.773438 361.347656 C 445.710938 361.316406 444.058594 359.78125 444.066406 357.917969 Z M 440.089844 365.738281 C 440.113281 363.898438 441.847656 362.359375 443.875 362.378906 C 445.910156 362.398438 447.617188 363.960938 447.597656 365.796875 C 447.574219 367.636719 445.84375 369.175781 443.8125 369.15625 C 441.773438 369.136719 440.070312 367.574219 440.089844 365.738281 Z M 436.230469 373.320312 C 436.265625 371.511719 437.859375 370.125 439.875 370.140625 C 441.925781 370.152344 443.492188 371.617188 443.449219 373.484375 C 443.414062 375.289062 441.820312 376.675781 439.804688 376.664062 C 437.753906 376.648438 436.1875 375.183594 436.230469 373.320312 Z M 435.855469 378.132812 C 437.730469 378.144531 439.234375 379.480469 439.273438 381.175781 C 439.308594 382.90625 437.792969 384.316406 435.871094 384.335938 C 433.957031 384.355469 432.40625 382.976562 432.398438 381.242188 C 432.398438 379.511719 433.933594 378.125 435.855469 378.132812 Z M 428.25 369.71875 C 428.277344 368.164062 429.644531 366.953125 431.378906 366.949219 C 433.15625 366.945312 434.535156 368.195312 434.527344 369.800781 C 434.519531 371.402344 433.125 372.640625 431.34375 372.621094 C 429.570312 372.605469 428.214844 371.332031 428.25 369.71875 Z M 429.378906 358.546875 C 429.375 359.871094 428.148438 360.960938 426.679688 360.941406 C 425.214844 360.921875 424.015625 359.800781 424.050781 358.476562 C 424.085938 357.195312 425.273438 356.140625 426.699219 356.128906 C 428.164062 356.121094 429.386719 357.222656 429.378906 358.546875 Z M 430.625 353.128906 C 429.136719 353.089844 428 352 428.03125 350.636719 C 428.0625 349.289062 429.257812 348.261719 430.761719 348.277344 C 432.257812 348.292969 433.414062 349.355469 433.410156 350.714844 C 433.402344 352.109375 432.175781 353.171875 430.625 353.128906 Z M 438.667969 362.1875 C 438.640625 363.78125 437.128906 365.121094 435.375 365.109375 C 433.617188 365.101562 432.121094 363.753906 432.113281 362.164062 C 432.101562 360.539062 433.671875 359.148438 435.457031 359.191406 C 437.226562 359.234375 438.699219 360.609375 438.667969 362.1875 Z M 442.71875 354.339844 C 442.707031 355.972656 441.179688 357.328125 439.375 357.316406 C 437.566406 357.308594 436.058594 355.929688 436.074219 354.300781 C 436.082031 352.664062 437.609375 351.308594 439.414062 351.316406 C 441.226562 351.328125 442.726562 352.703125 442.71875 354.339844 Z M 446.453125 346.75 C 446.402344 348.351562 444.882812 349.671875 443.128906 349.644531 C 441.367188 349.617188 439.886719 348.253906 439.898438 346.671875 C 439.910156 345.078125 441.40625 343.734375 443.164062 343.726562 C 444.964844 343.71875 446.507812 345.136719 446.453125 346.75 Z M 447.140625 341.675781 C 445.421875 341.664062 444.058594 340.425781 444.054688 338.867188 C 444.042969 337.269531 445.449219 336.011719 447.214844 336.027344 C 448.9375 336.042969 450.300781 337.277344 450.308594 338.835938 C 450.316406 340.433594 448.910156 341.691406 447.140625 341.675781 Z M 455.613281 350.308594 C 455.609375 352.1875 453.832031 353.75 451.757812 353.699219 C 449.71875 353.652344 448.046875 352.078125 448.085938 350.242188 C 448.125 348.398438 449.855469 346.878906 451.890625 346.902344 C 453.925781 346.925781 455.621094 348.46875 455.613281 350.308594 Z M 459.484375 342.488281 C 459.476562 344.335938 457.863281 345.765625 455.808594 345.746094 C 453.757812 345.726562 452.1875 344.257812 452.222656 342.398438 C 452.257812 340.589844 453.835938 339.195312 455.84375 339.191406 C 457.902344 339.183594 459.492188 340.632812 459.484375 342.488281 Z M 460.6875 326.945312 C 460.714844 325.339844 462.109375 324.121094 463.898438 324.132812 C 465.71875 324.152344 467.089844 325.449219 467.035156 327.109375 C 466.980469 328.707031 465.566406 329.902344 463.773438 329.863281 C 462 329.828125 460.660156 328.5625 460.6875 326.945312 Z M 463.324219 334.855469 C 463.308594 336.570312 461.726562 337.976562 459.835938 337.964844 C 457.9375 337.953125 456.378906 336.519531 456.390625 334.8125 C 456.410156 333.097656 457.992188 331.691406 459.882812 331.703125 C 461.777344 331.722656 463.339844 333.148438 463.324219 334.855469 Z M 426.046875 385.308594 C 426.011719 386.628906 424.753906 387.703125 423.289062 387.660156 C 421.832031 387.613281 420.652344 386.46875 420.71875 385.148438 C 420.785156 383.824219 422.066406 382.773438 423.527344 382.847656 C 424.945312 382.914062 426.078125 384.027344 426.046875 385.308594 Z M 424.449219 377.582031 C 424.464844 376.074219 425.773438 374.9375 427.457031 374.964844 C 429.074219 374.996094 430.316406 376.136719 430.320312 377.605469 C 430.328125 379.121094 429.046875 380.277344 427.367188 380.273438 C 425.695312 380.265625 424.429688 379.097656 424.449219 377.582031 Z M 501.417969 312.09375 C 503.09375 312.082031 504.386719 313.230469 504.390625 314.738281 C 504.394531 316.253906 503.109375 317.410156 501.433594 317.402344 C 499.804688 317.390625 498.542969 316.273438 498.515625 314.808594 C 498.488281 313.289062 499.75 312.113281 501.417969 312.09375 Z M 500.828125 295.078125 C 501.164062 295.132812 501.480469 295.316406 501.804688 295.445312 C 501.8125 295.582031 501.820312 295.71875 501.824219 295.855469 C 501.480469 296.066406 501.113281 296.464844 500.800781 296.433594 C 500.46875 296.398438 500 295.996094 499.917969 295.6875 C 499.753906 295.078125 500.332031 295 500.828125 295.078125 Z M 505.402344 304.855469 C 506.726562 304.828125 507.742188 305.722656 507.742188 306.917969 C 507.738281 308.070312 506.78125 308.953125 505.507812 308.976562 C 504.183594 309 503.167969 308.101562 503.171875 306.910156 C 503.175781 305.757812 504.128906 304.875 505.402344 304.855469 Z M 509.46875 298.097656 C 510.242188 298.09375 510.730469 298.523438 510.769531 299.214844 C 510.816406 299.96875 510.308594 300.367188 509.511719 300.492188 C 508.695312 300.421875 508.160156 300.050781 508.148438 299.296875 C 508.140625 298.550781 508.640625 298.101562 509.46875 298.097656 Z M 530.71875 276.851562 C 520.441406 271.0625 510.265625 265.109375 500.039062 259.246094 C 489.8125 253.375 479.667969 247.367188 469.480469 241.4375 L 454.222656 232.496094 L 443.765625 226.285156 L 437.886719 247.195312 L 430.410156 273.230469 L 422.898438 299.253906 C 420.417969 307.941406 417.851562 316.59375 415.28125 325.253906 L 399.902344 377.199219 L 385.355469 425.097656 L 395.144531 431.230469 L 405.035156 437.527344 L 421.746094 421.796875 L 431.589844 412.53125 L 441.476562 403.316406 L 461.289062 384.917969 C 467.886719 378.773438 474.496094 372.648438 481.160156 366.574219 L 501.097656 348.308594 L 521.140625 330.148438 L 531.1875 321.097656 L 541.277344 312.089844 C 548 306.074219 554.777344 300.121094 561.570312 294.1875 L 546.113281 285.570312 L 530.71875 276.851562 " fill-opacity="1" fill-rule="nonzero"/><path fill="#fff200" d="M 399.214844 502.636719 C 399.664062 501.835938 400.097656 501.023438 400.488281 500.175781 C 400.488281 500.175781 400.085938 500.953125 399.332031 502.40625 C 399.296875 502.480469 399.257812 502.558594 399.214844 502.636719 " fill-opacity="1" fill-rule="nonzero"/><path fill="#fff200" d="M 397.570312 467.273438 C 396.054688 465.230469 394.351562 463.21875 392.285156 461.480469 C 391.769531 461.050781 391.25 460.617188 390.726562 460.179688 C 390.167969 459.796875 389.601562 459.410156 389.027344 459.019531 C 387.917969 458.171875 386.6875 457.65625 385.527344 456.976562 C 384.949219 456.648438 384.167969 456.375 383.492188 456.070312 L 382.433594 455.617188 L 381.902344 455.390625 C 381.769531 455.324219 382.015625 455.449219 381.964844 455.429688 L 381.902344 455.40625 L 381.773438 455.371094 L 381.515625 455.289062 C 380.140625 454.898438 378.804688 454.390625 377.367188 454.183594 C 374.5625 453.523438 371.617188 453.480469 368.722656 453.59375 C 367.996094 453.667969 367.269531 453.738281 366.542969 453.808594 C 365.816406 453.882812 365.101562 454.082031 364.378906 454.195312 L 363.300781 454.390625 L 362.242188 454.695312 C 361.539062 454.910156 360.824219 455.074219 360.132812 455.324219 C 357.34375 456.269531 354.730469 457.671875 352.253906 459.253906 L 350.476562 460.566406 C 349.863281 460.972656 349.371094 461.539062 348.800781 462.003906 L 347.964844 462.722656 C 347.695312 462.96875 347.457031 463.253906 347.203125 463.515625 C 346.707031 464.058594 346.171875 464.5625 345.699219 465.128906 C 345.25 465.714844 344.8125 466.304688 344.34375 466.871094 C 344.09375 467.15625 343.890625 467.441406 343.726562 467.722656 L 343.183594 468.558594 L 342.621094 469.390625 C 342.433594 469.632812 342.222656 470.125 342.027344 470.480469 L 341.425781 471.644531 L 341.121094 472.230469 L 340.972656 472.519531 L 340.910156 472.632812 C 339.71875 475.308594 338.855469 478.109375 338.332031 480.976562 C 338.203125 481.703125 338.164062 482.4375 338.070312 483.167969 C 338.03125 483.53125 337.96875 483.898438 337.953125 484.265625 L 337.941406 485.367188 C 337.949219 486.101562 337.839844 486.84375 337.925781 487.574219 L 338.070312 489.78125 C 338.445312 492.699219 339.082031 495.597656 340.148438 498.34375 C 340.402344 499.035156 340.742188 499.6875 341.03125 500.363281 L 341.484375 501.371094 L 342.03125 502.316406 C 342.40625 502.945312 342.71875 503.621094 343.128906 504.226562 C 343.546875 504.828125 343.964844 505.429688 344.378906 506.023438 C 344.765625 506.65625 345.304688 507.148438 345.75 507.726562 C 346.222656 508.277344 346.652344 508.878906 347.195312 509.355469 C 347.714844 509.863281 348.234375 510.375 348.75 510.878906 C 349.269531 511.378906 349.8125 511.753906 350.339844 512.203125 C 351.289062 513.09375 352.765625 513.921875 354.039062 514.75 L 354.285156 514.90625 L 354.40625 514.984375 L 354.46875 515.019531 C 354.492188 515.035156 354.445312 515.011719 354.410156 514.996094 L 354.875 515.230469 L 355.824219 515.710938 C 356.460938 516.015625 357.070312 516.390625 357.726562 516.640625 C 362.890625 518.847656 368.414062 519.652344 373.480469 519.214844 C 378.550781 518.761719 383.105469 517.128906 386.761719 515.058594 C 390.476562 513.027344 393.191406 510.425781 395.222656 508.167969 C 395.71875 507.589844 396.1875 507.035156 396.625 506.519531 C 397.042969 505.980469 397.371094 505.4375 397.710938 504.949219 C 398.042969 504.457031 398.351562 504.003906 398.628906 503.585938 C 398.910156 503.167969 399.097656 502.746094 399.296875 502.390625 C 400.074219 500.945312 400.488281 500.175781 400.488281 500.175781 C 400.488281 500.175781 400.808594 499.363281 401.410156 497.839844 C 401.550781 497.453125 401.75 497.042969 401.890625 496.558594 C 402.027344 496.074219 402.175781 495.546875 402.339844 494.976562 C 402.488281 494.402344 402.695312 493.796875 402.835938 493.132812 C 402.949219 492.460938 403.066406 491.75 403.191406 490.996094 C 403.597656 487.988281 403.832031 484.234375 402.984375 480.089844 C 402.199219 475.960938 400.507812 471.429688 397.570312 467.273438 " fill-opacity="1" fill-rule="nonzero"/><path fill="#fff200" d="M 401.445312 497.855469 C 400.820312 499.371094 400.488281 500.175781 400.488281 500.175781 C 400.878906 499.328125 401.222656 498.476562 401.546875 497.617188 C 401.511719 497.695312 401.476562 497.777344 401.445312 497.855469 " fill-opacity="1" fill-rule="nonzero"/><path fill="#fff200" d="M 402.347656 495.246094 C 402.371094 495.164062 402.394531 495.082031 402.421875 494.996094 C 402.421875 494.996094 402.421875 494.996094 402.421875 495 C 402.394531 495.085938 402.375 495.160156 402.347656 495.246094 " fill-opacity="1" fill-rule="nonzero"/><path fill="#c8c7c7" d="M 385.136719 356.46875 L 394.042969 357.941406 L 395.859375 351.957031 L 389.710938 345.222656 L 385.136719 356.46875 " fill-opacity="1" fill-rule="nonzero"/><path fill="#c8c7c7" d="M 505.152344 431.695312 L 508.035156 437.902344 L 523.585938 427.433594 L 515.207031 424.921875 L 505.152344 431.695312 " fill-opacity="1" fill-rule="nonzero"/><path fill="#c8c7c7" d="M 352.195312 412.792969 L 333.632812 372.78125 L 301.226562 367.40625 L 329.402344 428.132812 L 352.195312 412.792969 " fill-opacity="1" fill-rule="nonzero"/><path fill="#c8c7c7" d="M 461.777344 486.289062 L 452.304688 509.570312 L 516.300781 520.179688 L 503.804688 493.257812 L 461.777344 486.289062 " fill-opacity="1" fill-rule="nonzero"/><path fill="#c8c7c7" d="M 331.21875 467.007812 L 331.527344 466.433594 L 332.148438 465.277344 C 332.378906 464.871094 332.503906 464.550781 332.824219 464.078125 L 333.710938 462.722656 L 334.613281 461.382812 C 334.910156 460.921875 335.222656 460.5 335.546875 460.128906 C 336.183594 459.34375 336.851562 458.585938 337.503906 457.820312 C 340.277344 454.90625 343.40625 452.363281 346.84375 450.421875 C 347.628906 449.984375 348.429688 449.589844 349.234375 449.207031 L 322.230469 441.109375 L 293.941406 460.148438 L 329.605469 470.84375 C 329.972656 469.832031 330.367188 468.832031 330.789062 467.839844 L 331.21875 467.007812 " fill-opacity="1" fill-rule="nonzero"/><path fill="#c8c7c7" d="M 417.492188 487.953125 C 418.257812 493.933594 417.40625 500.195312 414.679688 506.070312 C 412.472656 510.824219 409.28125 514.804688 405.46875 517.890625 L 427.816406 542.363281 L 440.019531 512.371094 L 417.664062 487.890625 L 417.492188 487.953125 " fill-opacity="1" fill-rule="nonzero"/><path fill="#c8c7c7" d="M 353.835938 520.605469 L 352.660156 520.234375 L 352.066406 520.042969 L 351.402344 519.75 C 349.96875 519.113281 348.589844 518.640625 346.984375 517.667969 C 346.21875 517.21875 345.378906 516.796875 344.65625 516.304688 C 343.9375 515.800781 343.214844 515.292969 342.488281 514.785156 C 342.109375 514.535156 341.757812 514.257812 341.414062 513.96875 L 339.691406 514.558594 L 340.082031 512.816406 C 339.507812 512.320312 338.90625 511.832031 338.402344 511.253906 C 335.785156 508.691406 333.605469 505.613281 331.738281 502.285156 C 330.59375 500.117188 329.671875 497.808594 328.9375 495.417969 L 319.78125 536.105469 L 360.675781 522.121094 C 359.1875 521.9375 357.683594 521.671875 356.167969 521.304688 C 355.375 521.140625 354.625 520.84375 353.835938 520.605469 " fill-opacity="1" fill-rule="nonzero"/><g clip-path="url(#c5b50e72d9)"><path fill="#000000" d="M 539.808594 438.496094 L 513.839844 456.777344 L 534.238281 503.199219 L 553.332031 546.246094 L 505.808594 537.65625 L 454.777344 528.566406 L 452.242188 528.117188 L 451.21875 530.558594 L 433.746094 572.148438 L 396.84375 531.066406 L 394.964844 528.976562 L 392.234375 529.890625 L 338.527344 547.796875 L 293.453125 562.964844 L 301.527344 527.890625 L 311.53125 484.019531 L 312.648438 479.117188 L 307.8125 477.660156 L 263.714844 464.359375 L 306.808594 435.449219 L 310.78125 432.789062 L 308.761719 428.453125 L 270.273438 345.859375 L 311.277344 352.570312 L 360.894531 360.546875 L 366.980469 418.332031 L 366.820312 360.597656 L 367.976562 357.707031 L 380.714844 325.957031 L 378.976562 397.769531 L 387.953125 321.265625 L 399.816406 334.097656 L 400.921875 335.289062 L 395.859375 351.957031 L 394.042969 357.945312 L 389.171875 373.984375 L 373.792969 425.929688 L 372.609375 429.917969 L 376.117188 432.078125 L 389.488281 440.320312 L 402.914062 448.476562 L 406.410156 450.597656 L 409.25 447.808594 L 409.46875 447.597656 L 419.488281 453.832031 L 518.800781 358.355469 L 518.398438 360.238281 L 514.746094 377.625 L 416.328125 461.261719 L 511.496094 393.089844 L 509.148438 404.273438 L 508.726562 406.285156 L 510.640625 406.832031 L 522.710938 410.257812 L 426.902344 461.261719 L 538.800781 414.828125 L 563.644531 421.8125 Z M 543.796875 412.757812 L 582.804688 396.570312 L 575.898438 381.945312 L 527.628906 407.640625 L 513.851562 403.289062 L 517.296875 388.9375 L 575.203125 347.457031 L 565.246094 334.707031 L 521.359375 372.003906 L 523.890625 361.472656 L 526.34375 351.105469 L 564.664062 314.265625 L 550.675781 305.636719 C 554.316406 301.828125 557.945312 298.011719 561.566406 294.1875 C 554.773438 300.125 547.996094 306.078125 541.277344 312.089844 L 531.1875 321.101562 L 521.140625 330.152344 L 501.09375 348.308594 L 481.15625 366.578125 C 474.496094 372.652344 467.886719 378.777344 461.289062 384.917969 L 441.472656 403.316406 L 431.589844 412.53125 L 421.746094 421.796875 L 405.035156 437.527344 L 395.140625 431.234375 L 385.355469 425.097656 L 399.902344 377.199219 L 415.28125 325.25 C 417.851562 316.597656 420.417969 307.941406 422.898438 299.257812 L 430.40625 273.230469 L 437.886719 247.195312 L 443.765625 226.289062 L 454.226562 232.496094 L 469.480469 241.4375 C 479.671875 247.367188 489.808594 253.375 500.035156 259.246094 C 510.265625 265.113281 520.441406 271.0625 530.71875 276.851562 L 546.109375 285.570312 L 561.566406 294.1875 L 546.933594 284.234375 L 532.242188 274.382812 C 522.457031 267.792969 512.574219 261.367188 502.746094 254.851562 C 492.914062 248.34375 483 241.972656 473.128906 235.527344 L 458.292969 225.902344 L 443.414062 216.355469 L 438.886719 213.457031 L 437.214844 218.710938 L 428.984375 244.527344 L 420.90625 270.382812 L 412.855469 296.25 C 410.148438 304.863281 407.527344 313.5 404.910156 322.144531 L 404.050781 324.96875 L 389.421875 308.75 L 399.34375 224.167969 L 383.207031 223.027344 L 381.347656 299.800781 L 381.042969 299.460938 L 378.121094 306.546875 L 366.746094 334.117188 L 366.539062 259.871094 L 350.382812 260.738281 L 357.589844 329.164062 L 349.78125 348.351562 L 313.019531 342.070312 L 261.902344 333.480469 L 251.769531 331.78125 L 256.085938 341.128906 L 265.234375 360.929688 L 237.375 356.308594 L 277.128906 441.988281 L 247.929688 461.703125 L 238.289062 468.214844 L 246.699219 470.722656 L 227.363281 483.738281 L 282.621094 500.304688 L 262.867188 588.097656 L 370 551.464844 L 411.304688 596.695312 L 421.851562 570.769531 L 432.105469 581.816406 L 436.277344 586.3125 L 438.5 580.671875 L 449.632812 552.410156 L 532.875 566.214844 L 523.335938 545.652344 L 556.203125 550.617188 L 559.789062 551.160156 L 558.230469 547.949219 L 536.117188 502.324219 L 514.414062 457.949219 L 542.886719 438.789062 L 542.15625 438.570312 L 567.226562 422.355469 L 569.429688 420.929688 L 566.886719 420.121094 L 543.796875 412.757812 " fill-opacity="1" fill-rule="nonzero"/></g><path fill="#000000" d="M 403.191406 490.996094 C 403.066406 491.75 402.949219 492.460938 402.835938 493.132812 C 402.695312 493.796875 402.488281 494.402344 402.339844 494.976562 C 402.175781 495.546875 402.027344 496.074219 401.890625 496.558594 C 401.75 497.042969 401.550781 497.453125 401.410156 497.839844 C 400.808594 499.363281 400.488281 500.175781 400.488281 500.175781 C 400.488281 500.175781 400.820312 499.371094 401.445312 497.855469 C 401.476562 497.777344 401.511719 497.695312 401.546875 497.617188 C 401.222656 498.476562 400.878906 499.328125 400.488281 500.175781 C 400.097656 501.023438 399.664062 501.835938 399.214844 502.636719 C 399.257812 502.558594 399.296875 502.480469 399.332031 502.40625 C 400.085938 500.953125 400.488281 500.175781 400.488281 500.175781 C 400.488281 500.175781 400.074219 500.945312 399.296875 502.390625 C 399.097656 502.746094 398.910156 503.167969 398.628906 503.585938 C 398.351562 504.003906 398.042969 504.457031 397.710938 504.949219 C 397.371094 505.4375 397.042969 505.980469 396.625 506.519531 C 396.1875 507.035156 395.71875 507.589844 395.222656 508.167969 C 393.191406 510.425781 390.476562 513.027344 386.761719 515.058594 C 383.105469 517.128906 378.550781 518.761719 373.480469 519.214844 C 368.414062 519.652344 362.890625 518.847656 357.726562 516.640625 C 357.070312 516.390625 356.460938 516.015625 355.824219 515.710938 L 354.875 515.230469 L 354.410156 514.996094 C 354.445312 515.011719 354.492188 515.035156 354.46875 515.019531 L 354.40625 514.984375 L 354.285156 514.90625 L 354.039062 514.75 C 352.765625 513.921875 351.289062 513.09375 350.339844 512.203125 C 349.8125 511.753906 349.269531 511.378906 348.75 510.878906 C 348.234375 510.375 347.714844 509.863281 347.195312 509.355469 C 346.652344 508.878906 346.222656 508.277344 345.75 507.726562 C 345.304688 507.148438 344.765625 506.65625 344.378906 506.023438 C 343.964844 505.429688 343.546875 504.828125 343.128906 504.226562 C 342.71875 503.621094 342.40625 502.945312 342.03125 502.316406 L 341.484375 501.371094 L 341.03125 500.363281 C 340.742188 499.6875 340.402344 499.035156 340.148438 498.34375 C 339.082031 495.597656 338.445312 492.699219 338.070312 489.78125 L 337.925781 487.574219 C 337.839844 486.84375 337.949219 486.101562 337.941406 485.367188 L 337.953125 484.265625 C 337.96875 483.898438 338.03125 483.53125 338.070312 483.167969 C 338.164062 482.4375 338.203125 481.703125 338.332031 480.976562 C 338.855469 478.109375 339.71875 475.308594 340.910156 472.632812 L 340.972656 472.519531 L 341.121094 472.230469 L 341.425781 471.644531 L 342.027344 470.480469 C 342.222656 470.125 342.433594 469.632812 342.621094 469.390625 L 343.183594 468.558594 L 343.726562 467.722656 C 343.890625 467.441406 344.09375 467.15625 344.34375 466.871094 C 344.8125 466.304688 345.25 465.714844 345.699219 465.128906 C 346.171875 464.5625 346.707031 464.058594 347.203125 463.515625 C 347.457031 463.253906 347.695312 462.96875 347.964844 462.722656 L 348.800781 462.003906 C 349.371094 461.539062 349.863281 460.972656 350.476562 460.566406 L 352.253906 459.253906 C 354.730469 457.671875 357.34375 456.269531 360.132812 455.324219 C 360.824219 455.074219 361.539062 454.910156 362.242188 454.695312 L 363.300781 454.390625 L 364.378906 454.195312 C 365.101562 454.082031 365.816406 453.882812 366.542969 453.808594 C 367.269531 453.738281 367.996094 453.667969 368.722656 453.59375 C 371.617188 453.480469 374.5625 453.523438 377.367188 454.183594 C 378.804688 454.390625 380.140625 454.898438 381.515625 455.289062 L 381.773438 455.371094 L 381.902344 455.40625 L 381.964844 455.429688 C 382.015625 455.449219 381.769531 455.324219 381.902344 455.390625 L 382.433594 455.617188 L 383.492188 456.070312 C 384.167969 456.375 384.949219 456.648438 385.527344 456.976562 C 386.6875 457.65625 387.917969 458.171875 389.027344 459.019531 C 389.601562 459.410156 390.167969 459.796875 390.726562 460.179688 C 391.25 460.617188 391.769531 461.050781 392.285156 461.480469 C 394.351562 463.21875 396.054688 465.230469 397.570312 467.273438 C 400.507812 471.429688 402.199219 475.960938 402.984375 480.089844 C 403.832031 484.234375 403.597656 487.988281 403.191406 490.996094 Z M 402.347656 495.246094 C 402.375 495.160156 402.394531 495.085938 402.421875 495 C 402.421875 494.996094 402.421875 494.996094 402.421875 494.996094 C 402.394531 495.082031 402.371094 495.164062 402.347656 495.246094 Z M 414.679688 506.070312 C 417.40625 500.195312 418.257812 493.933594 417.492188 487.953125 C 416.101562 477.015625 409.289062 467.011719 398.550781 462.03125 C 397.890625 461.722656 397.226562 461.453125 396.558594 461.191406 C 396.015625 460.445312 395.445312 459.703125 394.8125 458.996094 C 394.328125 458.429688 393.847656 457.851562 393.335938 457.285156 C 392.785156 456.761719 392.230469 456.230469 391.671875 455.691406 C 390.609375 454.578125 389.222656 453.652344 387.917969 452.621094 C 387.25 452.105469 386.632812 451.777344 385.980469 451.34375 L 385.011719 450.730469 L 384.523438 450.417969 L 383.847656 450.074219 C 382.351562 449.351562 380.855469 448.515625 379.214844 447.976562 C 376.011719 446.679688 372.488281 445.9375 368.855469 445.589844 C 365.203125 445.246094 361.445312 445.578125 357.695312 446.292969 C 354.816406 446.9375 351.972656 447.917969 349.234375 449.207031 C 348.429688 449.589844 347.628906 449.984375 346.84375 450.421875 C 343.40625 452.363281 340.277344 454.90625 337.503906 457.820312 C 336.851562 458.585938 336.183594 459.34375 335.546875 460.128906 C 335.222656 460.5 334.910156 460.921875 334.613281 461.382812 L 333.710938 462.722656 L 332.824219 464.078125 C 332.503906 464.550781 332.378906 464.871094 332.148438 465.277344 L 331.527344 466.433594 L 331.21875 467.007812 L 330.789062 467.839844 C 330.367188 468.832031 329.972656 469.832031 329.605469 470.84375 C 328.597656 473.628906 327.832031 476.5 327.488281 479.441406 C 327.046875 483.441406 327.144531 487.46875 327.875 491.347656 C 328.15625 492.730469 328.527344 494.082031 328.9375 495.417969 C 329.671875 497.808594 330.59375 500.117188 331.738281 502.285156 C 333.605469 505.613281 335.785156 508.691406 338.402344 511.253906 C 338.90625 511.832031 339.507812 512.320312 340.082031 512.816406 C 340.1875 512.910156 340.300781 513.003906 340.402344 513.097656 C 340.746094 513.386719 341.078125 513.679688 341.414062 513.96875 C 341.757812 514.257812 342.109375 514.535156 342.488281 514.785156 C 343.214844 515.292969 343.9375 515.800781 344.65625 516.304688 C 345.378906 516.796875 346.21875 517.21875 346.984375 517.667969 C 348.589844 518.640625 349.96875 519.113281 351.402344 519.75 L 352.066406 520.042969 L 352.660156 520.234375 L 353.835938 520.605469 C 354.625 520.84375 355.375 521.140625 356.167969 521.304688 C 357.683594 521.671875 359.1875 521.9375 360.675781 522.121094 C 364.070312 522.539062 367.359375 522.492188 370.449219 522.105469 C 370.511719 522.132812 370.574219 522.167969 370.636719 522.195312 C 382.5 527.699219 395.9375 525.589844 405.46875 517.890625 C 409.28125 514.804688 412.472656 510.824219 414.679688 506.070312 " fill-opacity="1" fill-rule="nonzero"/><path fill="#ffffff" d="M 341.414062 513.96875 C 341.078125 513.679688 340.746094 513.386719 340.402344 513.097656 C 340.300781 513.003906 340.1875 512.910156 340.082031 512.816406 L 339.691406 514.558594 L 341.414062 513.96875 " fill-opacity="1" fill-rule="nonzero"/><path fill="#ffffff" d="M 508.035156 437.902344 L 505.152344 431.691406 L 515.207031 424.921875 L 523.589844 427.433594 Z M 516.300781 520.179688 L 452.304688 509.566406 L 461.777344 486.289062 L 503.808594 493.257812 Z M 427.816406 542.363281 L 405.46875 517.890625 C 395.9375 525.589844 382.5 527.699219 370.636719 522.195312 C 370.574219 522.167969 370.511719 522.132812 370.449219 522.105469 C 367.359375 522.492188 364.070312 522.539062 360.675781 522.121094 L 319.78125 536.105469 L 328.9375 495.417969 C 328.527344 494.082031 328.15625 492.730469 327.875 491.347656 C 327.144531 487.46875 327.046875 483.441406 327.488281 479.441406 C 327.832031 476.5 328.597656 473.625 329.605469 470.839844 L 293.941406 460.148438 L 322.230469 441.109375 L 349.234375 449.207031 C 351.972656 447.917969 354.816406 446.9375 357.695312 446.292969 C 361.445312 445.574219 365.207031 445.246094 368.855469 445.589844 C 372.488281 445.9375 376.011719 446.679688 379.21875 447.976562 C 380.855469 448.515625 382.351562 449.347656 383.847656 450.074219 L 384.527344 450.417969 L 385.980469 451.34375 C 386.632812 451.777344 387.25 452.105469 387.917969 452.617188 C 389.222656 453.652344 390.609375 454.578125 391.671875 455.691406 C 392.234375 456.226562 392.785156 456.757812 393.335938 457.285156 C 393.847656 457.847656 394.328125 458.429688 394.816406 458.992188 C 395.449219 459.703125 396.015625 460.441406 396.558594 461.191406 C 397.226562 461.453125 397.894531 461.722656 398.554688 462.027344 C 409.289062 467.011719 416.101562 477.015625 417.496094 487.953125 L 417.664062 487.890625 L 440.023438 512.371094 Z M 301.226562 367.40625 L 333.632812 372.78125 L 352.199219 412.789062 L 329.40625 428.132812 Z M 426.90625 461.261719 L 522.714844 410.257812 L 510.644531 406.828125 L 508.730469 406.285156 L 509.152344 404.273438 L 511.5 393.089844 L 416.328125 461.261719 L 514.75 377.621094 L 518.402344 360.234375 L 518.804688 358.355469 L 419.492188 453.828125 L 409.46875 447.597656 L 409.253906 447.808594 L 406.410156 450.597656 L 402.914062 448.472656 L 389.492188 440.320312 L 376.121094 432.078125 L 372.613281 429.914062 L 373.792969 425.929688 L 389.175781 373.980469 L 394.042969 357.941406 L 385.136719 356.464844 L 389.710938 345.21875 L 395.863281 351.953125 L 400.921875 335.285156 L 399.816406 334.097656 L 387.953125 321.261719 L 378.976562 397.769531 L 380.714844 325.957031 L 367.980469 357.707031 L 366.820312 360.59375 L 366.980469 418.332031 L 360.898438 360.546875 L 311.277344 352.566406 L 270.277344 345.859375 L 308.761719 428.449219 L 310.78125 432.785156 L 306.8125 435.449219 L 263.714844 464.355469 L 307.8125 477.660156 L 312.648438 479.117188 L 311.53125 484.019531 L 301.527344 527.890625 L 293.457031 562.960938 L 338.527344 547.796875 L 392.234375 529.886719 L 394.964844 528.976562 L 396.84375 531.066406 L 433.75 572.148438 L 451.21875 530.558594 L 452.246094 528.113281 L 454.777344 528.566406 L 505.8125 537.65625 L 553.335938 546.246094 L 534.238281 503.199219 L 513.84375 456.777344 L 539.8125 438.496094 L 563.644531 421.808594 L 538.804688 414.828125 L 426.90625 461.261719 " fill-opacity="1" fill-rule="nonzero"/></svg>